<svg width="50" height="13" viewBox="0 0 50 13" fill="none" xmlns="http://www.w3.org/2000/svg">
<mask id="path-1-outside-1_29_4" maskUnits="userSpaceOnUse" x="20" y="0" width="30" height="13" fill="black">
<rect fill="white" x="20" width="30" height="13"/>
<path d="M22.512 12H21.248V0.672H25.28C26.5173 0.672 27.4773 0.986666 28.16 1.616C28.8427 2.23467 29.184 3.06133 29.184 4.096C29.184 5.17333 28.848 6.01067 28.176 6.608C27.504 7.19467 26.5387 7.488 25.28 7.488H22.512V12ZM22.512 6.448H25.28C26.176 6.448 26.8373 6.23467 27.264 5.808C27.7013 5.38133 27.92 4.816 27.92 4.112C27.92 3.42933 27.7013 2.864 27.264 2.416C26.8267 1.95733 26.1653 1.728 25.28 1.728H22.512V6.448ZM34.6631 0.672C35.9005 0.672 36.8605 0.965333 37.5431 1.552C38.2258 2.128 38.5671 2.95467 38.5671 4.032C38.5671 4.75733 38.3645 5.392 37.9591 5.936C37.5538 6.46933 37.0098 6.85333 36.3271 7.088L39.0631 11.904V12H37.7031L35.1271 7.36H32.1991V12H30.9351V0.672H34.6631ZM32.1991 6.32H34.7591C35.5591 6.32 36.1778 6.10133 36.6151 5.664C37.0631 5.22667 37.2871 4.68267 37.2871 4.032C37.2871 3.30667 37.0631 2.74133 36.6151 2.336C36.1778 1.93067 35.5271 1.728 34.6631 1.728H32.1991V6.32ZM49.2143 6.8C49.2143 7.888 49.0276 8.83733 48.6543 9.648C48.2916 10.448 47.7689 11.0667 47.0863 11.504C46.4143 11.9413 45.6303 12.16 44.7343 12.16C43.8489 12.16 43.0649 11.9413 42.3823 11.504C41.6996 11.0667 41.1663 10.4427 40.7823 9.632C40.4089 8.82133 40.2223 7.87733 40.2223 6.8V5.872C40.2223 4.784 40.4089 3.84 40.7823 3.04C41.1663 2.22933 41.6943 1.60533 42.3663 1.168C43.0489 0.730666 43.8329 0.511999 44.7183 0.511999C45.6143 0.511999 46.4036 0.730666 47.0863 1.168C47.7689 1.60533 48.2916 2.22933 48.6543 3.04C49.0276 3.84 49.2143 4.784 49.2143 5.872V6.8ZM47.9503 5.856C47.9503 4.512 47.6623 3.46667 47.0863 2.72C46.5209 1.97333 45.7316 1.6 44.7183 1.6C43.7156 1.6 42.9263 1.97867 42.3503 2.736C41.7743 3.48267 41.4863 4.52267 41.4863 5.856V6.8C41.4863 8.144 41.7743 9.19467 42.3503 9.952C42.9369 10.7093 43.7316 11.088 44.7343 11.088C45.7583 11.088 46.5476 10.7147 47.1023 9.968C47.6676 9.22133 47.9503 8.16533 47.9503 6.8V5.856Z"/>
</mask>
<path d="M22.512 12H21.248V0.672H25.28C26.5173 0.672 27.4773 0.986666 28.16 1.616C28.8427 2.23467 29.184 3.06133 29.184 4.096C29.184 5.17333 28.848 6.01067 28.176 6.608C27.504 7.19467 26.5387 7.488 25.28 7.488H22.512V12ZM22.512 6.448H25.28C26.176 6.448 26.8373 6.23467 27.264 5.808C27.7013 5.38133 27.92 4.816 27.92 4.112C27.92 3.42933 27.7013 2.864 27.264 2.416C26.8267 1.95733 26.1653 1.728 25.28 1.728H22.512V6.448ZM34.6631 0.672C35.9005 0.672 36.8605 0.965333 37.5431 1.552C38.2258 2.128 38.5671 2.95467 38.5671 4.032C38.5671 4.75733 38.3645 5.392 37.9591 5.936C37.5538 6.46933 37.0098 6.85333 36.3271 7.088L39.0631 11.904V12H37.7031L35.1271 7.36H32.1991V12H30.9351V0.672H34.6631ZM32.1991 6.32H34.7591C35.5591 6.32 36.1778 6.10133 36.6151 5.664C37.0631 5.22667 37.2871 4.68267 37.2871 4.032C37.2871 3.30667 37.0631 2.74133 36.6151 2.336C36.1778 1.93067 35.5271 1.728 34.6631 1.728H32.1991V6.32ZM49.2143 6.8C49.2143 7.888 49.0276 8.83733 48.6543 9.648C48.2916 10.448 47.7689 11.0667 47.0863 11.504C46.4143 11.9413 45.6303 12.16 44.7343 12.16C43.8489 12.16 43.0649 11.9413 42.3823 11.504C41.6996 11.0667 41.1663 10.4427 40.7823 9.632C40.4089 8.82133 40.2223 7.87733 40.2223 6.8V5.872C40.2223 4.784 40.4089 3.84 40.7823 3.04C41.1663 2.22933 41.6943 1.60533 42.3663 1.168C43.0489 0.730666 43.8329 0.511999 44.7183 0.511999C45.6143 0.511999 46.4036 0.730666 47.0863 1.168C47.7689 1.60533 48.2916 2.22933 48.6543 3.04C49.0276 3.84 49.2143 4.784 49.2143 5.872V6.8ZM47.9503 5.856C47.9503 4.512 47.6623 3.46667 47.0863 2.72C46.5209 1.97333 45.7316 1.6 44.7183 1.6C43.7156 1.6 42.9263 1.97867 42.3503 2.736C41.7743 3.48267 41.4863 4.52267 41.4863 5.856V6.8C41.4863 8.144 41.7743 9.19467 42.3503 9.952C42.9369 10.7093 43.7316 11.088 44.7343 11.088C45.7583 11.088 46.5476 10.7147 47.1023 9.968C47.6676 9.22133 47.9503 8.16533 47.9503 6.8V5.856Z" fill="black"/>
<path d="M22.512 12V12.3H22.812V12H22.512ZM21.248 12H20.948V12.3H21.248V12ZM21.248 0.672V0.372H20.948V0.672H21.248ZM28.16 1.616L27.9567 1.83658L27.9585 1.8383L28.16 1.616ZM28.176 6.608L28.3733 6.834L28.3753 6.83222L28.176 6.608ZM22.512 7.488V7.188H22.212V7.488H22.512ZM22.512 6.448H22.212V6.748H22.512V6.448ZM27.264 5.808L27.0545 5.59325L27.0519 5.59587L27.264 5.808ZM27.264 2.416L27.0469 2.62304L27.0493 2.62556L27.264 2.416ZM22.512 1.728V1.428H22.212V1.728H22.512ZM22.512 11.7H21.248V12.3H22.512V11.7ZM21.548 12V0.672H20.948V12H21.548ZM21.248 0.972H25.28V0.372H21.248V0.972ZM25.28 0.972C26.4676 0.972 27.3457 1.27335 27.9567 1.83657L28.3633 1.39543C27.609 0.699987 26.5671 0.372 25.28 0.372V0.972ZM27.9585 1.8383C28.5704 2.39277 28.884 3.13445 28.884 4.096H29.484C29.484 2.98821 29.115 2.07657 28.3615 1.3937L27.9585 1.8383ZM28.884 4.096C28.884 5.10618 28.572 5.85463 27.9767 6.38378L28.3753 6.83222C29.124 6.1667 29.484 5.24048 29.484 4.096H28.884ZM27.9787 6.382C27.3801 6.90456 26.4957 7.188 25.28 7.188V7.788C26.5816 7.788 27.6279 7.48478 28.3733 6.83399L27.9787 6.382ZM25.28 7.188H22.512V7.788H25.28V7.188ZM22.212 7.488V12H22.812V7.488H22.212ZM22.512 6.748H25.28V6.148H22.512V6.748ZM25.28 6.748C26.2173 6.748 26.9709 6.52532 27.4761 6.02013L27.0519 5.59587C26.7037 5.94401 26.1347 6.148 25.28 6.148V6.748ZM27.4735 6.02273C27.9776 5.5309 28.22 4.88346 28.22 4.112H27.62C27.62 4.74854 27.425 5.23177 27.0545 5.59326L27.4735 6.02273ZM28.22 4.112C28.22 3.35879 27.9759 2.7158 27.4787 2.20644L27.0493 2.62556C27.4268 3.0122 27.62 3.49988 27.62 4.112H28.22ZM27.4811 2.20898C26.9677 1.6705 26.214 1.428 25.28 1.428V2.028C26.1166 2.028 26.6856 2.24417 27.0469 2.62302L27.4811 2.20898ZM25.28 1.428H22.512V2.028H25.28V1.428ZM22.212 1.728V6.448H22.812V1.728H22.212ZM37.5431 1.552L37.3476 1.77953L37.3497 1.78129L37.5431 1.552ZM37.9591 5.936L38.198 6.11753L38.1997 6.11524L37.9591 5.936ZM36.3271 7.088L36.2296 6.80429L35.8877 6.92183L36.0663 7.23619L36.3271 7.088ZM39.0631 11.904H39.3631V11.8247L39.324 11.7558L39.0631 11.904ZM39.0631 12V12.3H39.3631V12H39.0631ZM37.7031 12L37.4408 12.1456L37.5265 12.3H37.7031V12ZM35.1271 7.36L35.3894 7.21438L35.3037 7.06H35.1271V7.36ZM32.1991 7.36V7.06H31.8991V7.36H32.1991ZM32.1991 12V12.3H32.4991V12H32.1991ZM30.9351 12H30.6351V12.3H30.9351V12ZM30.9351 0.672V0.372H30.6351V0.672H30.9351ZM32.1991 6.32H31.8991V6.62H32.1991V6.32ZM36.6151 5.664L36.4055 5.44931L36.403 5.45187L36.6151 5.664ZM36.6151 2.336L36.4112 2.55604L36.4139 2.55846L36.6151 2.336ZM32.1991 1.728V1.428H31.8991V1.728H32.1991ZM34.6631 0.972C35.8556 0.972 36.7367 1.25457 37.3476 1.77953L37.7387 1.32447C36.9842 0.676094 35.9453 0.372 34.6631 0.372V0.972ZM37.3497 1.78129C37.9508 2.28852 38.2671 3.02303 38.2671 4.032H38.8671C38.8671 2.8863 38.5008 1.96748 37.7366 1.32271L37.3497 1.78129ZM38.2671 4.032C38.2671 4.69749 38.0826 5.26823 37.7186 5.75676L38.1997 6.11524C38.6464 5.51577 38.8671 4.81717 38.8671 4.032H38.2671ZM37.7203 5.75447C37.3537 6.2368 36.8607 6.58737 36.2296 6.80429L36.4246 7.37171C37.1589 7.1193 37.7539 6.70187 38.198 6.11752L37.7203 5.75447ZM36.0663 7.23619L38.8023 12.0522L39.324 11.7558L36.588 6.93981L36.0663 7.23619ZM38.7631 11.904V12H39.3631V11.904H38.7631ZM39.0631 11.7H37.7031V12.3H39.0631V11.7ZM37.9654 11.8544L35.3894 7.21438L34.8648 7.50562L37.4408 12.1456L37.9654 11.8544ZM35.1271 7.06H32.1991V7.66H35.1271V7.06ZM31.8991 7.36V12H32.4991V7.36H31.8991ZM32.1991 11.7H30.9351V12.3H32.1991V11.7ZM31.2351 12V0.672H30.6351V12H31.2351ZM30.9351 0.972H34.6631V0.372H30.9351V0.972ZM32.1991 6.62H34.7591V6.02H32.1991V6.62ZM34.7591 6.62C35.6143 6.62 36.3185 6.38489 36.8273 5.87613L36.403 5.45187C36.0371 5.81777 35.5039 6.02 34.7591 6.02V6.62ZM36.8247 5.87867C37.333 5.38245 37.5871 4.75993 37.5871 4.032H36.9871C36.9871 4.6054 36.7932 5.07089 36.4056 5.44933L36.8247 5.87867ZM37.5871 4.032C37.5871 3.24039 37.3398 2.58707 36.8164 2.11354L36.4139 2.55846C36.7865 2.89559 36.9871 3.37294 36.9871 4.032H37.5871ZM36.8191 2.11597C36.3057 1.6402 35.5691 1.428 34.6631 1.428V2.028C35.4851 2.028 36.0499 2.22113 36.4112 2.55603L36.8191 2.11597ZM34.6631 1.428H32.1991V2.028H34.6631V1.428ZM31.8991 1.728V6.32H32.4991V1.728H31.8991ZM48.6543 9.648L48.3818 9.52251L48.381 9.52413L48.6543 9.648ZM47.0863 11.504L46.9244 11.2514L46.9226 11.2526L47.0863 11.504ZM42.3823 11.504L42.2204 11.7566L42.3823 11.504ZM40.7823 9.632L40.5097 9.7575L40.5111 9.76043L40.7823 9.632ZM40.7823 3.04L40.5111 2.91157L40.5104 2.91313L40.7823 3.04ZM42.3663 1.168L42.2044 0.915383L42.2026 0.916557L42.3663 1.168ZM48.6543 3.04L48.3804 3.16253L48.3824 3.16687L48.6543 3.04ZM47.0863 2.72L46.8471 2.9011L46.8487 2.90324L47.0863 2.72ZM42.3503 2.736L42.5878 2.91924L42.589 2.91761L42.3503 2.736ZM42.3503 9.952L42.1115 10.1336L42.1131 10.1357L42.3503 9.952ZM47.1023 9.968L46.8631 9.7869L46.8614 9.7891L47.1023 9.968ZM48.9143 6.8C48.9143 7.85397 48.7334 8.75885 48.3818 9.52251L48.9267 9.77349C49.3217 8.91582 49.5143 7.92203 49.5143 6.8H48.9143ZM48.381 9.52413C48.0402 10.276 47.5542 10.8479 46.9244 11.2514L47.2481 11.7566C47.9836 11.2854 48.543 10.62 48.9275 9.77187L48.381 9.52413ZM46.9226 11.2526C46.3049 11.6546 45.5792 11.86 44.7343 11.86V12.46C45.6813 12.46 46.5236 12.2281 47.2499 11.7554L46.9226 11.2526ZM44.7343 11.86C43.9008 11.86 43.174 11.6549 42.5441 11.2514L42.2204 11.7566C42.9558 12.2277 43.797 12.46 44.7343 12.46V11.86ZM42.5441 11.2514C41.9137 10.8476 41.4159 10.269 41.0534 9.50357L40.5111 9.76043C40.9166 10.6163 41.4855 11.2858 42.2204 11.7566L42.5441 11.2514ZM41.0547 9.50651C40.7029 8.74249 40.5223 7.84282 40.5223 6.8H39.9223C39.9223 7.91184 40.1149 8.90018 40.5098 9.75749L41.0547 9.50651ZM40.5223 6.8V5.872H39.9223V6.8H40.5223ZM40.5223 5.872C40.5223 4.81788 40.7031 3.91901 41.0541 3.16687L40.5104 2.91313C40.1147 3.76099 39.9223 4.75012 39.9223 5.872H40.5223ZM41.0534 3.16843C41.4165 2.40179 41.9098 1.82301 42.5299 1.41944L42.2026 0.916557C41.4787 1.38766 40.916 2.05687 40.5111 2.91157L41.0534 3.16843ZM42.5281 1.42061C43.158 1.01705 43.8848 0.811999 44.7183 0.811999V0.211999C43.781 0.211999 42.9398 0.44428 42.2044 0.91539L42.5281 1.42061ZM44.7183 0.811999C45.5631 0.811999 46.2951 1.01743 46.9244 1.42061L47.2481 0.91539C46.5121 0.443906 45.6654 0.211999 44.7183 0.211999V0.811999ZM46.9244 1.42061C47.5532 1.82342 48.0392 2.3999 48.3804 3.16251L48.9281 2.91749C48.5439 2.05877 47.9846 1.38724 47.2481 0.91539L46.9244 1.42061ZM48.3824 3.16687C48.7334 3.91901 48.9143 4.81788 48.9143 5.872H49.5143C49.5143 4.75012 49.3218 3.76099 48.9261 2.91313L48.3824 3.16687ZM48.9143 5.872V6.8H49.5143V5.872H48.9143ZM48.2503 5.856C48.2503 4.47312 47.9543 3.35414 47.3238 2.53676L46.8487 2.90324C47.3702 3.57919 47.6503 4.55088 47.6503 5.856H48.2503ZM47.3254 2.53891C46.6982 1.71051 45.8166 1.3 44.7183 1.3V1.9C45.6466 1.9 46.3436 2.23616 46.8471 2.90109L47.3254 2.53891ZM44.7183 1.3C43.6277 1.3 42.7477 1.71791 42.1115 2.55439L42.589 2.91761C43.1048 2.23942 43.8034 1.9 44.7183 1.9V1.3ZM42.1127 2.55276C41.4824 3.36978 41.1863 4.48313 41.1863 5.856H41.7863C41.7863 4.5622 42.0661 3.59556 42.5878 2.91924L42.1127 2.55276ZM41.1863 5.856V6.8H41.7863V5.856H41.1863ZM41.1863 6.8C41.1863 8.18324 41.4823 9.30638 42.1115 10.1336L42.589 9.77039C42.0662 9.08295 41.7863 8.10476 41.7863 6.8H41.1863ZM42.1131 10.1357C42.7596 10.9703 43.6438 11.388 44.7343 11.388V10.788C43.8193 10.788 43.1142 10.4484 42.5874 9.76828L42.1131 10.1357ZM44.7343 11.388C45.8421 11.388 46.7255 10.9782 47.3431 10.1469L46.8614 9.7891C46.3697 10.4511 45.6744 10.788 44.7343 10.788V11.388ZM47.3414 10.1491C47.9607 9.33125 48.2503 8.20191 48.2503 6.8H47.6503C47.6503 8.12875 47.3745 9.11142 46.8631 9.78691L47.3414 10.1491ZM48.2503 6.8V5.856H47.6503V6.8H48.2503Z" fill="white" mask="url(#path-1-outside-1_29_4)"/>
<mask id="path-3-inside-2_29_4" fill="white">
<path d="M0.392 0.672H1.656V12H0.392V0.672ZM5.54325 12H4.27925V0.672H8.31125C9.54858 0.672 10.5086 0.986666 11.1913 1.616C11.8739 2.23467 12.2153 3.06133 12.2153 4.096C12.2153 5.17333 11.8793 6.01067 11.2073 6.608C10.5353 7.19467 9.56992 7.488 8.31125 7.488H5.54325V12ZM5.54325 6.448H8.31125C9.20725 6.448 9.86858 6.23467 10.2953 5.808C10.7326 5.38133 10.9513 4.816 10.9513 4.112C10.9513 3.42933 10.7326 2.864 10.2953 2.416C9.85792 1.95733 9.19658 1.728 8.31125 1.728H5.54325V6.448ZM14.9264 3.456C14.9264 3.232 14.9957 3.05067 15.1344 2.912C15.273 2.76267 15.465 2.688 15.7104 2.688C15.9664 2.688 16.1637 2.76267 16.3024 2.912C16.441 3.05067 16.5104 3.232 16.5104 3.456C16.5104 3.66933 16.441 3.85067 16.3024 4C16.1637 4.13867 15.9664 4.208 15.7104 4.208C15.465 4.208 15.273 4.13867 15.1344 4C14.9957 3.85067 14.9264 3.66933 14.9264 3.456ZM14.9264 9.008C14.9264 8.784 14.9957 8.60267 15.1344 8.464C15.273 8.31467 15.465 8.24 15.7104 8.24C15.9664 8.24 16.1637 8.31467 16.3024 8.464C16.441 8.60267 16.5104 8.784 16.5104 9.008C16.5104 9.22133 16.441 9.40267 16.3024 9.552C16.1637 9.69067 15.9664 9.76 15.7104 9.76C15.465 9.76 15.273 9.69067 15.1344 9.552C14.9957 9.40267 14.9264 9.22133 14.9264 9.008Z"/>
</mask>
<path d="M0.392 0.672H1.656V12H0.392V0.672ZM5.54325 12H4.27925V0.672H8.31125C9.54858 0.672 10.5086 0.986666 11.1913 1.616C11.8739 2.23467 12.2153 3.06133 12.2153 4.096C12.2153 5.17333 11.8793 6.01067 11.2073 6.608C10.5353 7.19467 9.56992 7.488 8.31125 7.488H5.54325V12ZM5.54325 6.448H8.31125C9.20725 6.448 9.86858 6.23467 10.2953 5.808C10.7326 5.38133 10.9513 4.816 10.9513 4.112C10.9513 3.42933 10.7326 2.864 10.2953 2.416C9.85792 1.95733 9.19658 1.728 8.31125 1.728H5.54325V6.448ZM14.9264 3.456C14.9264 3.232 14.9957 3.05067 15.1344 2.912C15.273 2.76267 15.465 2.688 15.7104 2.688C15.9664 2.688 16.1637 2.76267 16.3024 2.912C16.441 3.05067 16.5104 3.232 16.5104 3.456C16.5104 3.66933 16.441 3.85067 16.3024 4C16.1637 4.13867 15.9664 4.208 15.7104 4.208C15.465 4.208 15.273 4.13867 15.1344 4C14.9957 3.85067 14.9264 3.66933 14.9264 3.456ZM14.9264 9.008C14.9264 8.784 14.9957 8.60267 15.1344 8.464C15.273 8.31467 15.465 8.24 15.7104 8.24C15.9664 8.24 16.1637 8.31467 16.3024 8.464C16.441 8.60267 16.5104 8.784 16.5104 9.008C16.5104 9.22133 16.441 9.40267 16.3024 9.552C16.1637 9.69067 15.9664 9.76 15.7104 9.76C15.465 9.76 15.273 9.69067 15.1344 9.552C14.9957 9.40267 14.9264 9.22133 14.9264 9.008Z" fill="white"/>
<path d="M0.392 0.672V0.372H0.0920001V0.672H0.392ZM1.656 0.672H1.956V0.372H1.656V0.672ZM1.656 12V12.3H1.956V12H1.656ZM0.392 12H0.0920001V12.3H0.392V12ZM0.392 0.972H1.656V0.372H0.392V0.972ZM1.356 0.672V12H1.956V0.672H1.356ZM1.656 11.7H0.392V12.3H1.656V11.7ZM0.692 12V0.672H0.0920001V12H0.692ZM5.54325 12V12.3H5.84325V12H5.54325ZM4.27925 12H3.97925V12.3H4.27925V12ZM4.27925 0.672V0.372H3.97925V0.672H4.27925ZM11.1913 1.616L10.9879 1.83658L10.9898 1.8383L11.1913 1.616ZM11.2073 6.608L11.4046 6.834L11.4066 6.83222L11.2073 6.608ZM5.54325 7.488V7.188H5.24325V7.488H5.54325ZM5.54325 6.448H5.24325V6.748H5.54325V6.448ZM10.2953 5.808L10.0857 5.59325L10.0831 5.59587L10.2953 5.808ZM10.2953 2.416L10.0781 2.62304L10.0806 2.62556L10.2953 2.416ZM5.54325 1.728V1.428H5.24325V1.728H5.54325ZM5.54325 11.7H4.27925V12.3H5.54325V11.7ZM4.57925 12V0.672H3.97925V12H4.57925ZM4.27925 0.972H8.31125V0.372H4.27925V0.972ZM8.31125 0.972C9.49882 0.972 10.377 1.27335 10.9879 1.83657L11.3946 1.39543C10.6402 0.699987 9.59835 0.372 8.31125 0.372V0.972ZM10.9898 1.8383C11.6016 2.39277 11.9153 3.13445 11.9153 4.096H12.5153C12.5153 2.98821 12.1462 2.07657 11.3927 1.3937L10.9898 1.8383ZM11.9153 4.096C11.9153 5.10618 11.6032 5.85463 11.0079 6.38378L11.4066 6.83222C12.1553 6.1667 12.5153 5.24048 12.5153 4.096H11.9153ZM11.01 6.382C10.4114 6.90456 9.52695 7.188 8.31125 7.188V7.788C9.61289 7.788 10.6591 7.48478 11.4045 6.83399L11.01 6.382ZM8.31125 7.188H5.54325V7.788H8.31125V7.188ZM5.24325 7.488V12H5.84325V7.488H5.24325ZM5.54325 6.748H8.31125V6.148H5.54325V6.748ZM8.31125 6.748C9.24853 6.748 10.0022 6.52532 10.5074 6.02013L10.0831 5.59587C9.73498 5.94401 9.16597 6.148 8.31125 6.148V6.748ZM10.5047 6.02273C11.0089 5.5309 11.2513 4.88346 11.2513 4.112H10.6513C10.6513 4.74854 10.4563 5.23177 10.0858 5.59326L10.5047 6.02273ZM11.2513 4.112C11.2513 3.35879 11.0072 2.7158 10.5099 2.20644L10.0806 2.62556C10.458 3.0122 10.6513 3.49988 10.6513 4.112H11.2513ZM10.5124 2.20898C9.99894 1.6705 9.2453 1.428 8.31125 1.428V2.028C9.14787 2.028 9.7169 2.24417 10.0781 2.62302L10.5124 2.20898ZM8.31125 1.428H5.54325V2.028H8.31125V1.428ZM5.24325 1.728V6.448H5.84325V1.728H5.24325ZM15.1344 2.912L15.3467 3.12428L15.3542 3.11614L15.1344 2.912ZM16.3024 2.912L16.0824 3.11627L16.0902 3.12413L16.3024 2.912ZM16.3024 4L16.5147 4.21228L16.5222 4.20414L16.3024 4ZM15.1344 4L14.9144 4.20428L14.9222 4.21213L15.1344 4ZM15.1344 8.464L15.3467 8.67628L15.3542 8.66814L15.1344 8.464ZM16.3024 8.464L16.0824 8.66828L16.0902 8.67613L16.3024 8.464ZM16.3024 9.552L16.5147 9.76428L16.5222 9.75614L16.3024 9.552ZM15.1344 9.552L14.9144 9.75628L14.9222 9.76413L15.1344 9.552ZM15.2264 3.456C15.2264 3.29927 15.2722 3.1984 15.3465 3.12413L14.9222 2.69987C14.7192 2.90293 14.6264 3.16473 14.6264 3.456H15.2264ZM15.3542 3.11614C15.4247 3.04023 15.5301 2.988 15.7104 2.988V2.388C15.4 2.388 15.1214 2.48511 14.9145 2.70786L15.3542 3.11614ZM15.7104 2.988C15.9058 2.988 16.0145 3.04285 16.0825 3.11614L16.5222 2.70786C16.3129 2.48248 16.027 2.388 15.7104 2.388V2.988ZM16.0902 3.12413C16.1645 3.1984 16.2104 3.29927 16.2104 3.456H16.8104C16.8104 3.16473 16.7176 2.90293 16.5145 2.69987L16.0902 3.12413ZM16.2104 3.456C16.2104 3.59752 16.1671 3.70482 16.0825 3.79586L16.5222 4.20414C16.715 3.99651 16.8104 3.74115 16.8104 3.456H16.2104ZM16.0902 3.78787C16.0235 3.85461 15.9121 3.908 15.7104 3.908V4.508C16.0206 4.508 16.3039 4.42272 16.5145 4.21213L16.0902 3.78787ZM15.7104 3.908C15.5235 3.908 15.4156 3.85693 15.3465 3.78787L14.9222 4.21213C15.1305 4.4204 15.4066 4.508 15.7104 4.508V3.908ZM15.3542 3.79586C15.2697 3.70482 15.2264 3.59752 15.2264 3.456H14.6264C14.6264 3.74115 14.7217 3.99651 14.9145 4.20414L15.3542 3.79586ZM15.2264 9.008C15.2264 8.85127 15.2722 8.7504 15.3465 8.67613L14.9222 8.25187C14.7192 8.45493 14.6264 8.71673 14.6264 9.008H15.2264ZM15.3542 8.66814C15.4247 8.59223 15.5301 8.54 15.7104 8.54V7.94C15.4 7.94 15.1214 8.03711 14.9145 8.25986L15.3542 8.66814ZM15.7104 8.54C15.9058 8.54 16.0145 8.59485 16.0825 8.66814L16.5222 8.25986C16.3129 8.03448 16.027 7.94 15.7104 7.94V8.54ZM16.0902 8.67613C16.1645 8.7504 16.2104 8.85127 16.2104 9.008H16.8104C16.8104 8.71673 16.7176 8.45493 16.5145 8.25187L16.0902 8.67613ZM16.2104 9.008C16.2104 9.14952 16.1671 9.25682 16.0825 9.34786L16.5222 9.75614C16.715 9.54851 16.8104 9.29315 16.8104 9.008H16.2104ZM16.0902 9.33987C16.0235 9.40661 15.9121 9.46 15.7104 9.46V10.06C16.0206 10.06 16.3039 9.97472 16.5145 9.76413L16.0902 9.33987ZM15.7104 9.46C15.5235 9.46 15.4156 9.40893 15.3465 9.33987L14.9222 9.76413C15.1305 9.9724 15.4066 10.06 15.7104 10.06V9.46ZM15.3542 9.34786C15.2697 9.25682 15.2264 9.14952 15.2264 9.008H14.6264C14.6264 9.29315 14.7217 9.54851 14.9145 9.75614L15.3542 9.34786Z" fill="black" mask="url(#path-3-inside-2_29_4)"/>
</svg>
