<svg width="1684" height="345" viewBox="0 0 1684 345" fill="none" xmlns="http://www.w3.org/2000/svg">
<rect x="0.5" y="0.5" width="1515" height="344" fill="url(#paint0_linear_216_281)" stroke="#D6D6D6"/>
<g filter="url(#filter0_d_216_281)">
<rect x="928.389" y="184" width="751.611" height="119" rx="5" fill="white"/>
<rect x="928.889" y="184.5" width="750.611" height="118" rx="4.5" stroke="#D6D6D6"/>
</g>
<path d="M991.804 272.308C987.8 272.308 984.984 269.052 984.984 263.904C984.984 258.756 987.8 255.61 991.804 255.61C995.808 255.61 998.624 258.756 998.624 263.904C998.624 269.052 995.808 272.308 991.804 272.308ZM991.804 270.79C994.774 270.79 996.754 268.106 996.754 263.904C996.754 259.768 994.774 257.216 991.804 257.216C988.834 257.216 986.854 259.768 986.854 263.904C986.854 268.106 988.834 270.79 991.804 270.79ZM996.688 276.004C993.652 276.004 991.628 274.266 990.792 271.978L992.706 271.824C993.344 273.562 994.928 274.464 996.886 274.464C997.59 274.464 998.14 274.354 998.536 274.222L998.91 275.652C998.426 275.85 997.612 276.004 996.688 276.004ZM998.896 272V270.944C1003.71 266.126 1006.33 263.288 1006.33 260.67C1006.33 258.866 1005.36 257.524 1003.27 257.524C1001.95 257.524 1000.77 258.36 999.864 259.438L998.808 258.426C1000.08 257.018 1001.47 256.072 1003.49 256.072C1006.35 256.072 1008.11 257.876 1008.11 260.604C1008.11 263.596 1005.39 266.544 1001.51 270.614C1002.37 270.526 1003.34 270.46 1004.15 270.46H1008.88V272H998.896ZM1010.95 272.308C1010.22 272.308 1009.61 271.714 1009.61 270.878C1009.61 269.998 1010.22 269.426 1010.95 269.426C1011.7 269.426 1012.31 269.998 1012.31 270.878C1012.31 271.714 1011.7 272.308 1010.95 272.308ZM1015.89 257.326H1025.79V258.668H1015.89V257.326ZM1020.84 260.076C1023.3 260.076 1025.08 261.924 1025.08 264.542C1025.08 267.204 1023.3 269.03 1020.84 269.03C1018.4 269.03 1016.61 267.204 1016.61 264.542C1016.61 261.924 1018.4 260.076 1020.84 260.076ZM1020.84 261.462C1019.23 261.462 1018.07 262.76 1018.07 264.542C1018.07 266.346 1019.23 267.644 1020.84 267.644C1022.47 267.644 1023.63 266.346 1023.63 264.542C1023.63 262.76 1022.47 261.462 1020.84 261.462ZM1031.09 253.872H1032.65V273.672H1031.09V253.872ZM1027.79 262.254H1031.62V263.618H1027.79V262.254ZM1026.82 254.334H1028.36V272.682H1026.82V254.334ZM1020.05 254.444H1021.65V258.14H1020.05V254.444ZM1047.88 253.872H1049.53V265.708H1047.88V253.872ZM1049.06 259.086H1052.47V260.472H1049.06V259.086ZM1043.21 266.126C1047.22 266.126 1049.7 267.512 1049.7 269.888C1049.7 272.242 1047.22 273.628 1043.21 273.628C1039.21 273.628 1036.74 272.242 1036.74 269.888C1036.74 267.512 1039.21 266.126 1043.21 266.126ZM1043.21 267.468C1040.22 267.468 1038.33 268.348 1038.33 269.888C1038.33 271.384 1040.22 272.308 1043.21 272.308C1046.23 272.308 1048.12 271.384 1048.12 269.888C1048.12 268.348 1046.23 267.468 1043.21 267.468ZM1035.09 262.694H1036.61C1040.66 262.694 1042.99 262.562 1045.7 262.012L1045.9 263.354C1043.1 263.904 1040.75 264.036 1036.61 264.036H1035.09V262.694ZM1035.09 255.412H1043.81V256.754H1036.7V263.574H1035.09V255.412ZM1064.79 257.612H1070.2V258.932H1064.79V257.612ZM1064.59 261.726H1070.07V263.068H1064.59V261.726ZM1069.91 253.872H1071.54V265.818H1069.91V253.872ZM1063.78 255.368H1065.51C1065.51 260.428 1061.91 264.036 1056.25 265.73L1055.59 264.432C1060.65 262.936 1063.78 259.922 1063.78 256.072V255.368ZM1056.6 255.368H1064.88V256.732H1056.6V255.368ZM1065.14 266.038C1069.12 266.038 1071.65 267.446 1071.65 269.8C1071.65 272.176 1069.12 273.584 1065.14 273.584C1061.14 273.584 1058.61 272.176 1058.61 269.8C1058.61 267.446 1061.14 266.038 1065.14 266.038ZM1065.14 267.336C1062.15 267.336 1060.21 268.282 1060.21 269.8C1060.21 271.34 1062.15 272.286 1065.14 272.286C1068.13 272.286 1070.05 271.34 1070.05 269.8C1070.05 268.282 1068.13 267.336 1065.14 267.336ZM1088.15 253.872H1089.78V265.862H1088.15V253.872ZM1084.72 259.922H1088.9V261.286H1084.72V259.922ZM1077 266.962H1089.78V273.408H1077V266.962ZM1088.2 268.282H1078.6V272.066H1088.2V268.282ZM1073.57 255.984H1085.01V257.326H1073.57V255.984ZM1079.29 258.404C1081.95 258.404 1083.82 259.834 1083.82 261.924C1083.82 264.036 1081.95 265.444 1079.29 265.444C1076.62 265.444 1074.73 264.036 1074.73 261.924C1074.73 259.834 1076.62 258.404 1079.29 258.404ZM1079.29 259.658C1077.53 259.658 1076.29 260.604 1076.29 261.924C1076.29 263.266 1077.53 264.19 1079.29 264.19C1081.02 264.19 1082.28 263.266 1082.28 261.924C1082.28 260.604 1081.02 259.658 1079.29 259.658ZM1078.49 253.674H1080.1V256.952H1078.49V253.674ZM1099.83 261.638H1103.66V263.002H1099.83V261.638ZM1107.01 253.872H1108.59V273.672H1107.01V253.872ZM1103.11 254.312H1104.65V272.66H1103.11V254.312ZM1096.25 255.566C1098.8 255.566 1100.45 258.206 1100.45 262.408C1100.45 266.61 1098.8 269.25 1096.25 269.25C1093.7 269.25 1092.05 266.61 1092.05 262.408C1092.05 258.206 1093.7 255.566 1096.25 255.566ZM1096.25 257.084C1094.6 257.084 1093.54 259.174 1093.54 262.408C1093.54 265.642 1094.6 267.754 1096.25 267.754C1097.9 267.754 1098.95 265.642 1098.95 262.408C1098.95 259.174 1097.9 257.084 1096.25 257.084ZM1119.9 260.67H1125.46V262.012H1119.9V260.67ZM1115.23 255.61H1116.55V259.262C1116.55 263.596 1114.11 267.798 1111.08 269.448L1110.04 268.15C1112.86 266.742 1115.23 262.914 1115.23 259.262V255.61ZM1115.54 255.61H1116.86V259.262C1116.86 262.848 1119.24 266.434 1122.05 267.798L1121.06 269.118C1117.98 267.512 1115.54 263.486 1115.54 259.262V255.61ZM1124.65 253.85H1126.28V273.694H1124.65V253.85ZM1131.91 255.764H1133.45V260.67H1137.91V255.764H1139.41V268.678H1131.91V255.764ZM1133.45 261.99V267.336H1137.91V261.99H1133.45ZM1146.38 253.872H1147.97V273.672H1146.38V253.872ZM1143.08 261.77H1146.98V263.112H1143.08V261.77ZM1142 254.312H1143.54V272.66H1142V254.312ZM1149.37 263.992H1167.35V265.334H1149.37V263.992ZM1157.69 264.828H1159.34V269.448H1157.69V264.828ZM1151.71 271.868H1165.35V273.232H1151.71V271.868ZM1151.71 267.468H1153.33V272.242H1151.71V267.468ZM1158.33 254.378C1162.53 254.378 1165.26 255.896 1165.26 258.338C1165.26 260.78 1162.53 262.298 1158.33 262.298C1154.17 262.298 1151.42 260.78 1151.42 258.338C1151.42 255.896 1154.17 254.378 1158.33 254.378ZM1158.33 255.72C1155.23 255.72 1153.14 256.732 1153.14 258.338C1153.14 259.944 1155.23 260.956 1158.33 260.956C1161.45 260.956 1163.52 259.944 1163.52 258.338C1163.52 256.732 1161.45 255.72 1158.33 255.72ZM1185.14 253.872H1186.77V267.314H1185.14V253.872ZM1180.74 259.526H1185.51V260.868H1180.74V259.526ZM1178.96 255.434H1180.67C1180.67 260.494 1177.2 264.168 1171.59 265.994L1170.88 264.696C1175.92 263.09 1178.96 260.032 1178.96 256.05V255.434ZM1171.83 255.434H1180.12V256.798H1171.83V255.434ZM1179.62 265.576H1181.03V266.522C1181.03 270.35 1177.42 272.836 1173.59 273.628L1172.95 272.33C1176.34 271.692 1179.62 269.514 1179.62 266.522V265.576ZM1179.84 265.576H1181.25V266.522C1181.25 269.47 1184.5 271.648 1187.89 272.286L1187.21 273.562C1183.4 272.792 1179.84 270.306 1179.84 266.522V265.576ZM1197.7 254.224C1202.06 254.224 1204.65 255.434 1204.65 257.656C1204.65 259.878 1202.06 261.11 1197.7 261.11C1193.37 261.11 1190.77 259.878 1190.77 257.656C1190.77 255.434 1193.37 254.224 1197.7 254.224ZM1197.7 255.456C1194.42 255.456 1192.47 256.27 1192.47 257.656C1192.47 259.042 1194.42 259.856 1197.7 259.856C1201 259.856 1202.96 259.042 1202.96 257.656C1202.96 256.27 1201 255.456 1197.7 255.456ZM1188.77 262.496H1206.66V263.816H1188.77V262.496ZM1190.95 265.62H1204.35V269.976H1192.6V272.484H1191.01V268.766H1202.74V266.874H1190.95V265.62ZM1191.01 272.154H1204.96V273.452H1191.01V272.154ZM1215.67 265.708H1217.32V268.986H1215.67V265.708ZM1224.34 253.872H1225.97V273.672H1224.34V253.872ZM1210.26 269.822L1210.04 268.436C1213.8 268.414 1218.75 268.37 1223.04 267.82L1223.17 269.03C1218.75 269.756 1213.93 269.822 1210.26 269.822ZM1210.46 256.336H1222.49V257.656H1210.46V256.336ZM1216.46 258.844C1219.3 258.844 1221.19 260.296 1221.19 262.518C1221.19 264.74 1219.3 266.17 1216.46 266.17C1213.65 266.17 1211.76 264.74 1211.76 262.518C1211.76 260.296 1213.65 258.844 1216.46 258.844ZM1216.46 260.12C1214.59 260.12 1213.3 261.088 1213.3 262.518C1213.3 263.926 1214.59 264.872 1216.46 264.872C1218.36 264.872 1219.65 263.926 1219.65 262.518C1219.65 261.088 1218.36 260.12 1216.46 260.12ZM1215.67 253.85H1217.3V257.04H1215.67V253.85ZM1233.07 255.61H1234.42V259.284C1234.42 263.574 1231.93 267.776 1228.89 269.426L1227.9 268.106C1230.7 266.698 1233.07 262.892 1233.07 259.284V255.61ZM1233.36 255.61H1234.68V259.284C1234.68 262.76 1237.03 266.368 1239.78 267.732L1238.77 269.03C1235.8 267.446 1233.36 263.442 1233.36 259.284V255.61ZM1241.68 253.872H1243.33V273.672H1241.68V253.872ZM1242.93 261.968H1246.63V263.332H1242.93V261.968ZM1254.44 261.638H1258.26V263.002H1254.44V261.638ZM1261.61 253.872H1263.19V273.672H1261.61V253.872ZM1257.71 254.312H1259.25V272.66H1257.71V254.312ZM1250.85 255.566C1253.4 255.566 1255.05 258.206 1255.05 262.408C1255.05 266.61 1253.4 269.25 1250.85 269.25C1248.3 269.25 1246.65 266.61 1246.65 262.408C1246.65 258.206 1248.3 255.566 1250.85 255.566ZM1250.85 257.084C1249.2 257.084 1248.14 259.174 1248.14 262.408C1248.14 265.642 1249.2 267.754 1250.85 267.754C1252.5 267.754 1253.56 265.642 1253.56 262.408C1253.56 259.174 1252.5 257.084 1250.85 257.084ZM1272.78 255.412C1275.66 255.412 1277.68 258.096 1277.68 262.298C1277.68 266.478 1275.66 269.184 1272.78 269.184C1269.92 269.184 1267.89 266.478 1267.89 262.298C1267.89 258.096 1269.92 255.412 1272.78 255.412ZM1272.78 256.864C1270.8 256.864 1269.43 259.042 1269.43 262.298C1269.43 265.554 1270.8 267.732 1272.78 267.732C1274.76 267.732 1276.14 265.554 1276.14 262.298C1276.14 259.042 1274.76 256.864 1272.78 256.864ZM1282.15 253.85H1283.78V273.694H1282.15V253.85ZM1277.13 261.484H1282.88V262.826H1277.13V261.484ZM1288.53 265.708H1302.57V267.006H1288.53V265.708ZM1295.53 267.974C1299.05 267.974 1301.12 268.986 1301.12 270.812C1301.12 272.66 1299.05 273.65 1295.53 273.65C1292.03 273.65 1289.98 272.66 1289.98 270.812C1289.98 268.986 1292.03 267.974 1295.53 267.974ZM1295.53 269.14C1293.13 269.14 1291.68 269.756 1291.68 270.812C1291.68 271.89 1293.13 272.484 1295.53 272.484C1297.97 272.484 1299.4 271.89 1299.4 270.812C1299.4 269.756 1297.97 269.14 1295.53 269.14ZM1294.76 263.75H1296.39V266.566H1294.76V263.75ZM1286.33 261.638H1287.17C1288.25 261.638 1289.76 261.594 1291.5 261.198L1291.7 262.54C1289.81 262.936 1288.31 262.958 1287.17 262.958H1286.33V261.638ZM1286.33 254.862H1291.24V256.182H1287.94V262.54H1286.33V254.862ZM1292.38 261.638H1293.35C1295.37 261.638 1296.87 261.594 1298.63 261.176L1298.81 262.496C1296.94 262.914 1295.46 262.958 1293.35 262.958H1292.38V261.638ZM1292.38 254.862H1297.84V256.182H1293.99V262.54H1292.38V254.862ZM1300.59 253.872H1302.22V264.388H1300.59V253.872ZM1296.87 258.03H1301.45V259.328H1296.87V258.03ZM1319.22 253.872H1320.81V273.672H1319.22V253.872ZM1310.49 262.056H1315.61V263.376H1310.49V262.056ZM1315.11 254.4H1316.65V272.638H1315.11V254.4ZM1310.91 256.402H1312.47C1312.47 261.506 1310.31 266.214 1305.01 269.382L1304.04 268.194C1308.73 265.4 1310.91 261.308 1310.91 256.688V256.402ZM1304.86 256.402H1311.52V257.744H1304.86V256.402ZM1330.26 255.896H1331.6V257.568C1331.6 261.154 1329.29 264.168 1326.08 265.4L1325.22 264.102C1328.1 263.046 1330.26 260.406 1330.26 257.568V255.896ZM1330.57 255.896H1331.91V257.546C1331.91 260.142 1333.93 262.628 1336.77 263.618L1335.94 264.916C1332.77 263.75 1330.57 260.846 1330.57 257.546V255.896ZM1335.69 259.108H1340.23V260.472H1335.69V259.108ZM1325.77 255.28H1336.33V256.622H1325.77V255.28ZM1328.21 266.83H1341.37V273.672H1339.74V268.172H1328.21V266.83ZM1339.74 253.872H1341.37V265.73H1339.74V253.872ZM1347.86 260.582H1349.47V264.344H1347.86V260.582ZM1355.19 260.582H1356.79V264.344H1355.19V260.582ZM1343.37 263.728H1361.26V265.048H1343.37V263.728ZM1352.3 266.654C1356.55 266.654 1359.08 267.886 1359.08 270.13C1359.08 272.374 1356.55 273.65 1352.3 273.65C1348.08 273.65 1345.55 272.374 1345.55 270.13C1345.55 267.886 1348.08 266.654 1352.3 266.654ZM1352.3 267.908C1349.14 267.908 1347.18 268.744 1347.18 270.13C1347.18 271.538 1349.14 272.374 1352.3 272.374C1355.49 272.374 1357.43 271.538 1357.43 270.13C1357.43 268.744 1355.49 267.908 1352.3 267.908ZM1352.3 254.246C1356.59 254.246 1359.26 255.588 1359.26 257.898C1359.26 260.208 1356.59 261.55 1352.3 261.55C1348.04 261.55 1345.37 260.208 1345.37 257.898C1345.37 255.588 1348.04 254.246 1352.3 254.246ZM1352.3 255.522C1349.09 255.522 1347.05 256.402 1347.05 257.898C1347.05 259.394 1349.09 260.274 1352.3 260.274C1355.54 260.274 1357.58 259.394 1357.58 257.898C1357.58 256.402 1355.54 255.522 1352.3 255.522ZM1375.16 253.872H1376.79V273.672H1375.16V253.872ZM1376.39 262.078H1380.09V263.442H1376.39V262.078ZM1361.5 257.062H1373.2V258.404H1361.5V257.062ZM1367.46 260.142C1370.23 260.142 1372.24 262.012 1372.24 264.674C1372.24 267.336 1370.23 269.184 1367.46 269.184C1364.69 269.184 1362.67 267.336 1362.67 264.674C1362.67 262.012 1364.69 260.142 1367.46 260.142ZM1367.46 261.506C1365.57 261.506 1364.21 262.826 1364.21 264.674C1364.21 266.5 1365.57 267.82 1367.46 267.82C1369.31 267.82 1370.7 266.5 1370.7 264.674C1370.7 262.826 1369.31 261.506 1367.46 261.506ZM1366.6 254.092H1368.23V257.7H1366.6V254.092ZM1381.76 255.918H1394.55V257.26H1381.76V255.918ZM1379.85 269.47H1397.76V270.834H1379.85V269.47ZM1386.93 262.342H1388.54V270.152H1386.93V262.342ZM1393.93 255.918H1395.54V257.876C1395.54 260.318 1395.54 263.024 1394.83 266.984L1393.18 266.786C1393.93 263.024 1393.93 260.252 1393.93 257.876V255.918ZM1415.55 253.894H1417.18V264.872H1415.55V253.894ZM1406.24 254.62H1407.59V256.534C1407.59 260.208 1405.23 263.244 1401.98 264.454L1401.16 263.178C1404.07 262.122 1406.24 259.46 1406.24 256.534V254.62ZM1406.53 254.62H1407.87V256.534C1407.87 259.35 1410.07 261.836 1412.93 262.804L1412.14 264.08C1408.91 262.958 1406.53 260.076 1406.53 256.534V254.62ZM1404.13 266.126H1417.31V267.446H1404.13V266.126ZM1403.96 272.066H1417.53V273.408H1403.96V272.066ZM1406.93 266.698H1408.53V272.858H1406.93V266.698ZM1412.93 266.698H1414.54V272.858H1412.93V266.698ZM1433.96 261.836H1437.64V263.222H1433.96V261.836ZM1432.75 253.85H1434.4V273.672H1432.75V253.85ZM1420.04 255.808H1421.67V268.084H1420.04V255.808ZM1420.04 267.248H1421.6C1424.55 267.248 1427.54 267.028 1430.82 266.346L1431.04 267.732C1427.63 268.414 1424.61 268.612 1421.6 268.612H1420.04V267.248ZM1441.95 264.08H1443.56V270.086H1441.95V264.08ZM1449.28 264.08H1450.9V270.086H1449.28V264.08ZM1437.46 269.734H1455.44V271.098H1437.46V269.734ZM1446.39 255.17C1450.6 255.17 1453.57 257.15 1453.57 260.23C1453.57 263.288 1450.6 265.268 1446.39 265.268C1442.24 265.268 1439.24 263.288 1439.24 260.23C1439.24 257.15 1442.24 255.17 1446.39 255.17ZM1446.39 256.468C1443.16 256.468 1440.81 257.964 1440.81 260.23C1440.81 262.474 1443.16 263.97 1446.39 263.97C1449.65 263.97 1452 262.474 1452 260.23C1452 257.964 1449.65 256.468 1446.39 256.468ZM1458.49 267.27C1457.97 263.376 1461.9 261.968 1461.9 259.284C1461.9 257.92 1461.09 256.776 1459.44 256.776C1458.34 256.776 1457.31 257.326 1456.54 258.228L1455.5 257.282C1456.49 256.138 1457.88 255.28 1459.62 255.28C1462.1 255.28 1463.66 256.82 1463.66 259.152C1463.66 262.408 1459.66 263.75 1460.08 267.27H1458.49ZM1459.35 272.308C1458.6 272.308 1458.01 271.714 1458.01 270.878C1458.01 269.998 1458.6 269.426 1459.35 269.426C1460.1 269.426 1460.72 269.998 1460.72 270.878C1460.72 271.714 1460.1 272.308 1459.35 272.308Z" fill="black"/>
<path d="M988.668 212.18H990.768V214.26C990.768 218.44 989.008 222.7 985.608 224.3L984.108 222.2C987.168 220.76 988.668 217.3 988.668 214.26V212.18ZM989.228 212.18H991.328V214.26C991.328 217.06 992.768 220.34 995.808 221.74L994.348 223.84C990.948 222.26 989.228 218.2 989.228 214.26V212.18ZM984.828 211.04H994.988V213.22H984.828V211.04ZM996.348 209.26H999.028V227.78H996.348V209.26ZM998.428 216.32H1001.71V218.52H998.428V216.32ZM1014.87 209.26H1017.55V227.78H1014.87V209.26ZM1009.41 211.18H1012.05C1012.05 216.84 1010.13 221.48 1003.55 224.66L1002.17 222.54C1007.49 219.98 1009.41 216.62 1009.41 211.66V211.18ZM1003.15 211.18H1010.67V213.28H1003.15V211.18ZM1019.72 223.44H1036.48V225.62H1019.72V223.44ZM1026.68 219.32H1029.32V224.02H1026.68V219.32ZM1026.58 210.28H1028.9V211.62C1028.9 215.56 1026.04 219.04 1021.2 219.92L1020.1 217.7C1024.32 217.02 1026.58 214.18 1026.58 211.62V210.28ZM1027.1 210.28H1029.42V211.62C1029.42 214.24 1031.68 217.02 1035.92 217.7L1034.82 219.92C1029.96 219.02 1027.1 215.62 1027.1 211.62V210.28ZM1050.62 209.26H1053.16V227.78H1050.62V209.26ZM1048.28 216.24H1051.34V218.36H1048.28V216.24ZM1042.76 211.52H1045.3C1045.3 216.74 1043.78 220.96 1038.6 223.98L1037.06 222.14C1041.28 219.64 1042.76 216.52 1042.76 212.08V211.52ZM1038 211.52H1043.54V213.66H1038V211.52ZM1046.52 209.74H1049V226.98H1046.52V209.74ZM1064.24 215.04H1069.12V217.18H1064.24V215.04ZM1059.2 210.68H1061.36V213.36C1061.36 218.02 1059.78 222.32 1056.3 224.06L1054.64 221.92C1057.8 220.46 1059.2 216.88 1059.2 213.36V210.68ZM1059.76 210.68H1061.88V213.36C1061.88 216.88 1063.22 220.26 1066.28 221.62L1064.7 223.74C1061.22 222.06 1059.76 217.98 1059.76 213.36V210.68ZM1067.8 209.24H1070.44V227.82H1067.8V209.24ZM1077.05 210.6H1084.97V212.74H1077.05V210.6ZM1079.33 214.92H1081.97V219.56H1079.33V214.92ZM1083.93 210.6H1086.55V211.76C1086.55 213.06 1086.55 214.9 1086.11 217.2L1083.53 216.92C1083.93 214.64 1083.93 213.04 1083.93 211.76V210.6ZM1088.35 209.26H1091.03V223.12H1088.35V209.26ZM1089.97 214.9H1093.23V217.08H1089.97V214.9ZM1078.67 225.34H1091.61V227.46H1078.67V225.34ZM1078.67 221.88H1081.33V226H1078.67V221.88ZM1076.21 220.64L1075.97 218.54C1079.17 218.54 1083.63 218.48 1087.35 217.96L1087.51 219.84C1083.69 220.56 1079.39 220.64 1076.21 220.64ZM1094.53 218.56H1095.95C1099.09 218.56 1101.03 218.48 1103.29 218.08L1103.57 220.2C1101.25 220.62 1099.19 220.7 1095.95 220.7H1094.53V218.56ZM1094.51 210.52H1102.65V216.5H1097.17V219.84H1094.53V214.5H1100.01V212.64H1094.51V210.52ZM1106.67 209.28H1109.33V222.96H1106.67V209.28ZM1103.71 212.06H1107.17V214.16H1103.71V212.06ZM1096.97 225.3H1109.79V227.44H1096.97V225.3ZM1096.97 221.9H1099.61V226.1H1096.97V221.9ZM1103.71 216.24H1107.17V218.36H1103.71V216.24ZM1127.88 209.26H1130.56V218.74H1127.88V209.26ZM1118.2 219.48H1130.56V224.46H1120.84V226.4H1118.24V222.6H1127.92V221.5H1118.2V219.48ZM1118.24 225.62H1131.02V227.66H1118.24V225.62ZM1119.66 211.02H1121.82V211.74C1121.82 215.02 1120.08 217.94 1116.46 218.96L1115.24 216.88C1118.32 216.02 1119.66 213.86 1119.66 211.74V211.02ZM1120.24 211.02H1122.38V211.74C1122.38 213.7 1123.7 215.72 1126.72 216.54L1125.5 218.58C1121.94 217.62 1120.24 214.84 1120.24 211.74V211.02ZM1115.94 210.1H1126.02V212.2H1115.94V210.1ZM1132.76 218.4H1149.52V220.52H1132.76V218.4ZM1140.02 219.74H1142.7V223.64H1140.02V219.74ZM1134.82 210.04H1147.4V216.92H1134.82V210.04ZM1144.78 212.12H1137.42V214.84H1144.78V212.12ZM1134.7 225.34H1147.68V227.46H1134.7V225.34ZM1134.7 222.08H1137.34V226.04H1134.7V222.08Z" fill="#FD7E14"/>
<g filter="url(#filter1_d_216_281)">
<rect x="804.524" y="42" width="751.611" height="119" rx="5" fill="white"/>
<rect x="805.024" y="42.5" width="750.611" height="118" rx="4.5" stroke="#D6D6D6"/>
</g>
<path d="M867.939 130.308C863.935 130.308 861.119 127.052 861.119 121.904C861.119 116.756 863.935 113.61 867.939 113.61C871.943 113.61 874.759 116.756 874.759 121.904C874.759 127.052 871.943 130.308 867.939 130.308ZM867.939 128.79C870.909 128.79 872.889 126.106 872.889 121.904C872.889 117.768 870.909 115.216 867.939 115.216C864.969 115.216 862.989 117.768 862.989 121.904C862.989 126.106 864.969 128.79 867.939 128.79ZM872.823 134.004C869.787 134.004 867.763 132.266 866.927 129.978L868.841 129.824C869.479 131.562 871.063 132.464 873.021 132.464C873.725 132.464 874.275 132.354 874.671 132.222L875.045 133.652C874.561 133.85 873.747 134.004 872.823 134.004ZM876.021 130V128.504H879.629V116.646H876.769V115.48C878.177 115.238 879.189 114.864 880.025 114.358H881.411V128.504H884.689V130H876.021ZM887.086 130.308C886.36 130.308 885.744 129.714 885.744 128.878C885.744 127.998 886.36 127.426 887.086 127.426C887.834 127.426 888.45 127.998 888.45 128.878C888.45 129.714 887.834 130.308 887.086 130.308ZM892.044 123.268H910.018V124.61H892.044V123.268ZM900.184 124.082H901.79V131.672H900.184V124.082ZM900.998 112.686C905.112 112.686 907.884 114.358 907.884 116.998C907.884 119.638 905.112 121.332 900.998 121.332C896.884 121.332 894.112 119.638 894.112 116.998C894.112 114.358 896.884 112.686 900.998 112.686ZM900.998 113.984C897.896 113.984 895.762 115.194 895.762 116.998C895.762 118.824 897.896 119.99 900.998 119.99C904.1 119.99 906.212 118.824 906.212 116.998C906.212 115.194 904.1 113.984 900.998 113.984ZM924.891 111.85H926.497V131.694H924.891V111.85ZM911.471 125.512H913.099C916.377 125.512 919.347 125.38 922.933 124.808L923.109 126.15C919.457 126.744 916.465 126.876 913.099 126.876H911.471V125.512ZM911.427 113.742H920.535V120.716H913.099V126.04H911.471V119.374H918.907V115.084H911.427V113.742ZM937.205 123.708H938.855V126.986H937.205V123.708ZM945.873 111.872H947.501V131.672H945.873V111.872ZM931.793 127.822L931.573 126.436C935.335 126.414 940.285 126.37 944.575 125.82L944.707 127.03C940.285 127.756 935.467 127.822 931.793 127.822ZM931.991 114.336H944.025V115.656H931.991V114.336ZM937.997 116.844C940.835 116.844 942.727 118.296 942.727 120.518C942.727 122.74 940.835 124.17 937.997 124.17C935.181 124.17 933.289 122.74 933.289 120.518C933.289 118.296 935.181 116.844 937.997 116.844ZM937.997 118.12C936.127 118.12 934.829 119.088 934.829 120.518C934.829 121.926 936.127 122.872 937.997 122.872C939.889 122.872 941.187 121.926 941.187 120.518C941.187 119.088 939.889 118.12 937.997 118.12ZM937.205 111.85H938.833V115.04H937.205V111.85ZM954.608 113.61H955.95V117.284C955.95 121.574 953.464 125.776 950.428 127.426L949.438 126.106C952.232 124.698 954.608 120.892 954.608 117.284V113.61ZM954.894 113.61H956.214V117.284C956.214 120.76 958.568 124.368 961.318 125.732L960.306 127.03C957.336 125.446 954.894 121.442 954.894 117.284V113.61ZM963.21 111.872H964.86V131.672H963.21V111.872ZM964.464 119.968H968.16V121.332H964.464V119.968ZM981.448 111.85H983.098V131.672H981.448V111.85ZM982.658 119.99H986.332V121.354H982.658V119.99ZM976.432 114.006H978.016C978.016 119.572 975.376 124.676 968.996 127.866L968.094 126.59C973.616 123.818 976.432 119.484 976.432 114.248V114.006ZM968.974 114.006H977.268V115.37H968.974V114.006ZM1004.23 111.872H1005.82V131.672H1004.23V111.872ZM1000.91 119.924H1004.81V121.266H1000.91V119.924ZM995.941 114.446H997.503C997.503 119.44 995.721 124.214 990.067 127.404L989.099 126.216C994.159 123.422 995.941 119.286 995.941 114.732V114.446ZM989.825 114.446H996.491V115.788H989.825V114.446ZM999.835 112.4H1001.4V130.682H999.835V112.4ZM1017.46 116.602H1022.52V117.988H1017.46V116.602ZM1012.35 113.06H1013.67V115.546C1013.67 119.352 1011.41 122.52 1008.19 123.84L1007.34 122.52C1010.24 121.42 1012.35 118.626 1012.35 115.546V113.06ZM1012.64 113.06H1013.96V115.634C1013.96 118.428 1016 121.046 1018.82 122.102L1017.94 123.356C1014.86 122.124 1012.64 119.132 1012.64 115.634V113.06ZM1021.9 111.894H1023.53V126.722H1021.9V111.894ZM1010.88 129.868H1024.01V131.232H1010.88V129.868ZM1010.88 125.05H1012.51V130.462H1010.88V125.05ZM1025.49 115.326H1035.39V116.668H1025.49V115.326ZM1030.44 118.076C1032.9 118.076 1034.68 119.924 1034.68 122.542C1034.68 125.204 1032.9 127.03 1030.44 127.03C1028 127.03 1026.21 125.204 1026.21 122.542C1026.21 119.924 1028 118.076 1030.44 118.076ZM1030.44 119.462C1028.83 119.462 1027.67 120.76 1027.67 122.542C1027.67 124.346 1028.83 125.644 1030.44 125.644C1032.07 125.644 1033.23 124.346 1033.23 122.542C1033.23 120.76 1032.07 119.462 1030.44 119.462ZM1040.69 111.872H1042.25V131.672H1040.69V111.872ZM1037.39 120.254H1041.22V121.618H1037.39V120.254ZM1036.42 112.334H1037.96V130.682H1036.42V112.334ZM1029.65 112.444H1031.25V116.14H1029.65V112.444ZM1049.03 113.412C1051.93 113.412 1053.96 116.096 1053.96 120.298C1053.96 124.478 1051.93 127.184 1049.03 127.184C1046.15 127.184 1044.1 124.478 1044.1 120.298C1044.1 116.096 1046.15 113.412 1049.03 113.412ZM1049.03 114.864C1047.03 114.864 1045.64 117.042 1045.64 120.298C1045.64 123.554 1047.03 125.732 1049.03 125.732C1051.03 125.732 1052.42 123.554 1052.42 120.298C1052.42 117.042 1051.03 114.864 1049.03 114.864ZM1058.49 116.91H1062.16V118.296H1058.49V116.91ZM1058.49 122.828H1062.16V124.192H1058.49V122.828ZM1057.3 111.872H1058.95V131.672H1057.3V111.872ZM1078.61 111.784H1080.24V122.784H1078.61V111.784ZM1079.54 116.646H1083.23V118.032H1079.54V116.646ZM1067.77 123.818H1080.24V128.152H1069.39V130.638H1067.81V126.942H1078.63V125.072H1067.77V123.818ZM1067.81 130.176H1080.97V131.452H1067.81V130.176ZM1064.97 113.72H1076.68V114.996H1064.97V113.72ZM1070.82 115.942C1073.66 115.942 1075.53 117.196 1075.53 119.198C1075.53 121.222 1073.66 122.454 1070.82 122.454C1067.96 122.454 1066.09 121.222 1066.09 119.198C1066.09 117.196 1067.96 115.942 1070.82 115.942ZM1070.82 117.174C1068.89 117.174 1067.63 117.966 1067.63 119.198C1067.63 120.43 1068.89 121.244 1070.82 121.244C1072.72 121.244 1073.97 120.43 1073.97 119.198C1073.97 117.966 1072.72 117.174 1070.82 117.174ZM1070.01 111.652H1071.64V114.6H1070.01V111.652ZM1100.65 111.872H1102.28V125.314H1100.65V111.872ZM1096.25 117.526H1101.02V118.868H1096.25V117.526ZM1094.47 113.434H1096.18C1096.18 118.494 1092.71 122.168 1087.1 123.994L1086.39 122.696C1091.43 121.09 1094.47 118.032 1094.47 114.05V113.434ZM1087.34 113.434H1095.63V114.798H1087.34V113.434ZM1095.13 123.576H1096.54V124.522C1096.54 128.35 1092.93 130.836 1089.1 131.628L1088.46 130.33C1091.85 129.692 1095.13 127.514 1095.13 124.522V123.576ZM1095.35 123.576H1096.76V124.522C1096.76 127.47 1100.01 129.648 1103.4 130.286L1102.72 131.562C1098.91 130.792 1095.35 128.306 1095.35 124.522V123.576ZM1105.18 114.072H1114.23V115.414H1105.18V114.072ZM1108.37 119.726H1109.98V126.436H1108.37V119.726ZM1113.54 114.072H1115.15V115.04C1115.15 116.58 1115.15 119.22 1114.56 122.96L1112.95 122.806C1113.54 119.154 1113.54 116.58 1113.54 115.04V114.072ZM1117.77 111.872H1119.4V131.672H1117.77V111.872ZM1118.96 120.21H1122.65V121.596H1118.96V120.21ZM1104.28 127.294L1104.08 125.908C1107.67 125.886 1112.49 125.842 1116.51 125.336L1116.6 126.546C1112.47 127.184 1107.8 127.272 1104.28 127.294ZM1140.16 119.836H1143.83V121.222H1140.16V119.836ZM1138.95 111.85H1140.6V131.672H1138.95V111.85ZM1126.23 113.808H1127.86V126.084H1126.23V113.808ZM1126.23 125.248H1127.79C1130.74 125.248 1133.73 125.028 1137.01 124.346L1137.23 125.732C1133.82 126.414 1130.81 126.612 1127.79 126.612H1126.23V125.248ZM1148.91 113.412C1151.82 113.412 1153.84 116.096 1153.84 120.298C1153.84 124.478 1151.82 127.184 1148.91 127.184C1146.03 127.184 1143.99 124.478 1143.99 120.298C1143.99 116.096 1146.03 113.412 1148.91 113.412ZM1148.91 114.864C1146.91 114.864 1145.53 117.042 1145.53 120.298C1145.53 123.554 1146.91 125.732 1148.91 125.732C1150.92 125.732 1152.3 123.554 1152.3 120.298C1152.3 117.042 1150.92 114.864 1148.91 114.864ZM1157.19 111.872H1158.84V131.672H1157.19V111.872ZM1158.44 119.858H1162.14V121.244H1158.44V119.858ZM1175.42 111.85H1177.07V131.672H1175.42V111.85ZM1176.63 119.99H1180.31V121.354H1176.63V119.99ZM1170.41 114.006H1171.99C1171.99 119.572 1169.35 124.676 1162.97 127.866L1162.07 126.59C1167.59 123.818 1170.41 119.484 1170.41 114.248V114.006ZM1162.95 114.006H1171.24V115.37H1162.95V114.006ZM1185.39 113.412C1188.29 113.412 1190.32 116.096 1190.32 120.298C1190.32 124.478 1188.29 127.184 1185.39 127.184C1182.51 127.184 1180.46 124.478 1180.46 120.298C1180.46 116.096 1182.51 113.412 1185.39 113.412ZM1185.39 114.864C1183.39 114.864 1182 117.042 1182 120.298C1182 123.554 1183.39 125.732 1185.39 125.732C1187.39 125.732 1188.78 123.554 1188.78 120.298C1188.78 117.042 1187.39 114.864 1185.39 114.864ZM1194.85 116.91H1198.52V118.296H1194.85V116.91ZM1194.85 122.828H1198.52V124.192H1194.85V122.828ZM1193.66 111.872H1195.31V131.672H1193.66V111.872ZM1214.98 111.784H1216.6V122.784H1214.98V111.784ZM1215.9 116.646H1219.6V118.032H1215.9V116.646ZM1204.13 123.818H1216.6V128.152H1205.76V130.638H1204.17V126.942H1215V125.072H1204.13V123.818ZM1204.17 130.176H1217.33V131.452H1204.17V130.176ZM1201.34 113.72H1213.04V114.996H1201.34V113.72ZM1207.19 115.942C1210.03 115.942 1211.9 117.196 1211.9 119.198C1211.9 121.222 1210.03 122.454 1207.19 122.454C1204.33 122.454 1202.46 121.222 1202.46 119.198C1202.46 117.196 1204.33 115.942 1207.19 115.942ZM1207.19 117.174C1205.25 117.174 1204 117.966 1204 119.198C1204 120.43 1205.25 121.244 1207.19 121.244C1209.08 121.244 1210.33 120.43 1210.33 119.198C1210.33 117.966 1209.08 117.174 1207.19 117.174ZM1206.37 111.652H1208V114.6H1206.37V111.652ZM1231.45 124.346C1235.47 124.346 1237.94 125.71 1237.94 127.998C1237.94 130.308 1235.47 131.65 1231.45 131.65C1227.44 131.65 1224.98 130.308 1224.98 127.998C1224.98 125.71 1227.44 124.346 1231.45 124.346ZM1231.45 125.666C1228.46 125.666 1226.59 126.546 1226.59 127.998C1226.59 129.472 1228.46 130.352 1231.45 130.352C1234.46 130.352 1236.33 129.472 1236.33 127.998C1236.33 126.546 1234.46 125.666 1231.45 125.666ZM1236.11 111.872H1237.74V123.796H1236.11V111.872ZM1237.3 116.91H1240.71V118.296H1237.3V116.91ZM1223.26 113.104H1224.87V116.184H1230.79V113.104H1232.37V122.212H1223.26V113.104ZM1224.87 117.482V120.892H1230.79V117.482H1224.87ZM1255.49 115.392H1258.93V116.756H1255.49V115.392ZM1255.49 119.594H1258.93V120.958H1255.49V119.594ZM1254.35 111.872H1255.98V124.654H1254.35V111.872ZM1249.8 124.808C1253.78 124.808 1256.2 126.062 1256.2 128.218C1256.2 130.374 1253.78 131.628 1249.8 131.628C1245.81 131.628 1243.37 130.374 1243.37 128.218C1243.37 126.062 1245.81 124.808 1249.8 124.808ZM1249.8 126.106C1246.83 126.106 1245 126.876 1245 128.218C1245 129.56 1246.83 130.352 1249.8 130.352C1252.77 130.352 1254.61 129.56 1254.61 128.218C1254.61 126.876 1252.77 126.106 1249.8 126.106ZM1240.71 114.16H1252.41V115.48H1240.71V114.16ZM1246.56 116.536C1249.38 116.536 1251.27 117.9 1251.27 120.034C1251.27 122.168 1249.38 123.51 1246.56 123.51C1243.72 123.51 1241.83 122.168 1241.83 120.034C1241.83 117.9 1243.72 116.536 1246.56 116.536ZM1246.56 117.79C1244.65 117.79 1243.37 118.692 1243.37 120.034C1243.37 121.376 1244.65 122.256 1246.56 122.256C1248.43 122.256 1249.71 121.376 1249.71 120.034C1249.71 118.692 1248.43 117.79 1246.56 117.79ZM1245.75 111.696H1247.38V114.908H1245.75V111.696ZM1258.88 122.344H1276.77V123.664H1258.88V122.344ZM1261.21 129.868H1274.81V131.232H1261.21V129.868ZM1261.21 125.49H1262.84V130.264H1261.21V125.49ZM1267.81 112.554C1272.06 112.554 1274.77 114.006 1274.77 116.47C1274.77 118.934 1272.06 120.408 1267.81 120.408C1263.59 120.408 1260.88 118.934 1260.88 116.47C1260.88 114.006 1263.59 112.554 1267.81 112.554ZM1267.81 113.874C1264.65 113.874 1262.56 114.864 1262.56 116.47C1262.56 118.098 1264.65 119.088 1267.81 119.088C1271.03 119.088 1273.09 118.098 1273.09 116.47C1273.09 114.864 1271.03 113.874 1267.81 113.874ZM1280 123.444H1297.97V124.786H1280V123.444ZM1288.14 124.258H1289.74V131.672H1288.14V124.258ZM1282.33 112.994H1295.62V120.672H1282.33V112.994ZM1294.03 114.314H1283.94V119.352H1294.03V114.314ZM1312.87 111.872H1314.49V125.49H1312.87V111.872ZM1308.03 117.35H1313.37V118.692H1308.03V117.35ZM1303.65 113.236C1306.55 113.236 1308.73 115.172 1308.73 118.01C1308.73 120.782 1306.55 122.762 1303.65 122.762C1300.72 122.762 1298.59 120.782 1298.59 118.01C1298.59 115.172 1300.72 113.236 1303.65 113.236ZM1303.65 114.622C1301.62 114.622 1300.15 116.03 1300.15 118.01C1300.15 119.946 1301.62 121.376 1303.65 121.376C1305.67 121.376 1307.17 119.946 1307.17 118.01C1307.17 116.03 1305.67 114.622 1303.65 114.622ZM1307.34 123.884H1308.75V124.698C1308.75 128.328 1305.12 130.858 1301.27 131.584L1300.63 130.286C1304.02 129.692 1307.34 127.514 1307.34 124.698V123.884ZM1307.63 123.884H1309.02V124.698C1309.02 127.58 1312.32 129.692 1315.75 130.286L1315.09 131.584C1311.24 130.836 1307.63 128.394 1307.63 124.698V123.884ZM1331.06 111.894H1332.69V126.392H1331.06V111.894ZM1320.06 129.868H1333.33V131.232H1320.06V129.868ZM1320.06 124.896H1321.67V130.308H1320.06V124.896ZM1322.11 113.28C1325.03 113.28 1327.23 115.282 1327.23 118.12C1327.23 120.98 1325.03 122.982 1322.11 122.982C1319.16 122.982 1316.96 120.98 1316.96 118.12C1316.96 115.282 1319.16 113.28 1322.11 113.28ZM1322.11 114.688C1320.08 114.688 1318.56 116.118 1318.56 118.12C1318.56 120.122 1320.08 121.552 1322.11 121.552C1324.13 121.552 1325.65 120.122 1325.65 118.12C1325.65 116.118 1324.13 114.688 1322.11 114.688ZM1348.26 111.85H1349.91V131.672H1348.26V111.85ZM1349.47 119.99H1353.15V121.354H1349.47V119.99ZM1343.25 114.006H1344.83C1344.83 119.572 1342.19 124.676 1335.81 127.866L1334.91 126.59C1340.43 123.818 1343.25 119.484 1343.25 114.248V114.006ZM1335.79 114.006H1344.08V115.37H1335.79V114.006ZM1357.46 122.08H1359.07V128.086H1357.46V122.08ZM1364.79 122.08H1366.41V128.086H1364.79V122.08ZM1352.97 127.734H1370.95V129.098H1352.97V127.734ZM1361.9 113.17C1366.11 113.17 1369.08 115.15 1369.08 118.23C1369.08 121.288 1366.11 123.268 1361.9 123.268C1357.75 123.268 1354.75 121.288 1354.75 118.23C1354.75 115.15 1357.75 113.17 1361.9 113.17ZM1361.9 114.468C1358.67 114.468 1356.32 115.964 1356.32 118.23C1356.32 120.474 1358.67 121.97 1361.9 121.97C1365.16 121.97 1367.51 120.474 1367.51 118.23C1367.51 115.964 1365.16 114.468 1361.9 114.468ZM1374 125.27C1373.48 121.376 1377.41 119.968 1377.41 117.284C1377.41 115.92 1376.6 114.776 1374.95 114.776C1373.85 114.776 1372.82 115.326 1372.05 116.228L1371.01 115.282C1372 114.138 1373.39 113.28 1375.13 113.28C1377.61 113.28 1379.17 114.82 1379.17 117.152C1379.17 120.408 1375.17 121.75 1375.59 125.27H1374ZM1374.86 130.308C1374.11 130.308 1373.52 129.714 1373.52 128.878C1373.52 127.998 1374.11 127.426 1374.86 127.426C1375.61 127.426 1376.23 127.998 1376.23 128.878C1376.23 129.714 1375.61 130.308 1374.86 130.308Z" fill="black"/>
<path d="M873.403 67.26H876.083V85.78H873.403V67.26ZM867.943 69.18H870.583C870.583 74.84 868.663 79.48 862.083 82.66L860.703 80.54C866.023 77.98 867.943 74.62 867.943 69.66V69.18ZM861.683 69.18H869.203V71.28H861.683V69.18ZM887.601 71.34H892.241V73.48H887.601V71.34ZM883.361 68.02C886.141 68.02 888.241 69.88 888.241 72.44C888.241 75.02 886.141 76.86 883.361 76.86C880.561 76.86 878.461 75.02 878.461 72.44C878.461 69.88 880.561 68.02 883.361 68.02ZM883.361 70.24C882.001 70.24 881.001 71.06 881.001 72.44C881.001 73.82 882.001 74.66 883.361 74.66C884.721 74.66 885.701 73.82 885.701 72.44C885.701 71.06 884.721 70.24 883.361 70.24ZM891.081 67.26H893.741V77.22H891.081V67.26ZM881.441 78.02H884.081V79.78H891.101V78.02H893.741V85.58H881.441V78.02ZM884.081 81.82V83.46H891.101V81.82H884.081ZM900.391 68.6H908.311V70.74H900.391V68.6ZM902.671 72.92H905.311V77.56H902.671V72.92ZM907.271 68.6H909.891V69.76C909.891 71.06 909.891 72.9 909.451 75.2L906.871 74.92C907.271 72.64 907.271 71.04 907.271 69.76V68.6ZM911.691 67.26H914.371V81.12H911.691V67.26ZM913.311 72.9H916.571V75.08H913.311V72.9ZM902.011 83.34H914.951V85.46H902.011V83.34ZM902.011 79.88H904.671V84H902.011V79.88ZM899.551 78.64L899.311 76.54C902.511 76.54 906.971 76.48 910.691 75.96L910.851 77.84C907.031 78.56 902.731 78.64 899.551 78.64ZM917.869 76.56H919.289C922.429 76.56 924.369 76.48 926.629 76.08L926.909 78.2C924.589 78.62 922.529 78.7 919.289 78.7H917.869V76.56ZM917.849 68.52H925.989V74.5H920.509V77.84H917.869V72.5H923.349V70.64H917.849V68.52ZM930.009 67.28H932.669V80.96H930.009V67.28ZM927.049 70.06H930.509V72.16H927.049V70.06ZM920.309 83.3H933.129V85.44H920.309V83.3ZM920.309 79.9H922.949V84.1H920.309V79.9ZM927.049 74.24H930.509V76.36H927.049V74.24ZM951.219 67.26H953.899V76.74H951.219V67.26ZM941.539 77.48H953.899V82.46H944.179V84.4H941.579V80.6H951.259V79.5H941.539V77.48ZM941.579 83.62H954.359V85.66H941.579V83.62ZM942.999 69.02H945.159V69.74C945.159 73.02 943.419 75.94 939.799 76.96L938.579 74.88C941.659 74.02 942.999 71.86 942.999 69.74V69.02ZM943.579 69.02H945.719V69.74C945.719 71.7 947.039 73.72 950.059 74.54L948.839 76.58C945.279 75.62 943.579 72.84 943.579 69.74V69.02ZM939.279 68.1H949.359V70.2H939.279V68.1ZM956.097 76.4H972.857V78.52H956.097V76.4ZM963.357 77.74H966.037V81.64H963.357V77.74ZM958.157 68.04H970.737V74.92H958.157V68.04ZM968.117 70.12H960.757V72.84H968.117V70.12ZM958.037 83.34H971.017V85.46H958.037V83.34ZM958.037 80.08H960.677V84.04H958.037V80.08Z" fill="#007BFF"/>
<path d="M176.936 151.806H170.036V112.706H176.936V151.806ZM165.436 116.662C165.405 121.109 164.899 125.049 163.918 128.484C162.937 131.919 161.158 135.077 158.582 137.96C156.006 140.843 152.418 143.388 147.818 145.596L144.368 140.122C147.527 138.589 150.072 136.948 152.004 135.2C153.967 133.452 155.454 131.52 156.466 129.404C157.478 127.257 158.122 124.789 158.398 121.998H146.622V116.662H165.436ZM190.953 114.224C193.283 114.224 195.353 114.853 197.163 116.11C198.972 117.337 200.183 118.947 200.797 120.94H205.949V112.706H212.757V133.728H205.949V126.414H200.797C200.183 128.438 198.972 130.079 197.163 131.336C195.353 132.563 193.283 133.176 190.953 133.176C189.021 133.176 187.257 132.762 185.663 131.934C184.068 131.106 182.811 129.971 181.891 128.53C181.001 127.058 180.557 125.433 180.557 123.654C180.557 121.875 181.001 120.281 181.891 118.87C182.811 117.429 184.068 116.294 185.663 115.466C187.257 114.638 189.021 114.224 190.953 114.224ZM190.953 120.02C189.757 120.02 188.775 120.342 188.009 120.986C187.273 121.599 186.905 122.489 186.905 123.654C186.905 124.881 187.273 125.831 188.009 126.506C188.775 127.15 189.757 127.472 190.953 127.472C192.087 127.472 192.992 127.15 193.667 126.506C194.372 125.831 194.725 124.881 194.725 123.654C194.725 122.489 194.372 121.599 193.667 120.986C192.992 120.342 192.087 120.02 190.953 120.02ZM193.299 138.19H205.949V135.246H212.757V151.438H186.629V135.246H193.299V138.19ZM205.949 145.918V143.388H193.299V145.918H205.949ZM237.537 120.158C237.537 123.01 237.476 125.509 237.353 127.656C237.261 129.803 236.985 132.21 236.525 134.878L229.855 134.234C230.223 131.965 230.453 129.879 230.545 127.978C230.668 126.046 230.729 123.976 230.729 121.768H217.435V116.34H237.537V120.158ZM228.429 138.512C231.956 138.359 235.283 138.083 238.411 137.684L238.779 142.836C233.259 143.787 226.359 144.262 218.079 144.262H216.055L215.641 138.834L221.667 138.742V127.564H228.429V138.512ZM246.691 127.932H251.061V133.636H246.691V151.806H239.837V112.706H246.691V127.932ZM295.611 132.578H290.827V151.714H284.019V112.706H290.827V127.012H295.611V132.578ZM268.057 136.626C273.423 136.473 278.146 135.967 282.225 135.108L282.961 140.766C277.747 141.839 271.691 142.376 264.791 142.376H261.203V116.432H268.057V136.626ZM330.879 134.786H295.965V129.772H330.879V134.786ZM326.923 145.78H306.545V147.022H327.843V151.622H299.737V141.502H320.069V140.536H299.737V135.89H326.923V145.78ZM326.923 122.918H306.959V124.16H327.475V128.668H300.197V118.824H320.069V117.582H300.151V113.12H326.923V122.918ZM372.715 138.558H365.953V112.706H372.715V138.558ZM362.825 137.362C362.825 139.386 363.729 141.241 365.539 142.928C367.348 144.615 370.338 145.703 374.509 146.194L371.887 151.668C368.851 151.208 366.275 150.38 364.159 149.184C362.073 148.019 360.463 146.577 359.329 144.86C358.163 146.577 356.538 148.019 354.453 149.184C352.367 150.38 349.807 151.208 346.771 151.668L344.195 146.194C348.335 145.703 351.294 144.63 353.073 142.974C354.882 141.287 355.787 139.417 355.787 137.362V136.902H362.825V137.362ZM351.509 114.96C353.533 114.96 355.373 115.389 357.029 116.248C358.685 117.076 359.988 118.226 360.939 119.698C361.92 121.17 362.411 122.826 362.411 124.666C362.411 126.567 361.92 128.269 360.939 129.772C359.988 131.244 358.685 132.394 357.029 133.222C355.373 134.05 353.533 134.464 351.509 134.464C349.515 134.464 347.691 134.05 346.035 133.222C344.409 132.394 343.121 131.244 342.171 129.772C341.22 128.269 340.745 126.567 340.745 124.666C340.745 122.857 341.22 121.216 342.171 119.744C343.121 118.241 344.425 117.076 346.081 116.248C347.737 115.389 349.546 114.96 351.509 114.96ZM351.509 120.848C350.282 120.848 349.301 121.17 348.565 121.814C347.829 122.458 347.461 123.409 347.461 124.666C347.461 125.954 347.829 126.951 348.565 127.656C349.301 128.361 350.282 128.714 351.509 128.714C352.735 128.714 353.732 128.361 354.499 127.656C355.265 126.951 355.649 125.954 355.649 124.666C355.649 123.439 355.265 122.504 354.499 121.86C353.732 121.185 352.735 120.848 351.509 120.848ZM407.201 127.84H380.245V114.04H386.915V122.55H407.201V127.84ZM411.019 136.626H376.105V131.336H411.019V136.626ZM407.431 150.978H379.693V139.248H386.593V145.55H407.431V150.978Z" fill="white"/>
<path d="M278.562 185.318H284.22V179.752H291.12V208.134H284.22V199.164H278.562V202.2H259.978V182.696H278.562V185.318ZM266.694 196.956H271.846V188.078H266.694V196.956ZM291.81 218.208H265.176V205.42H272.03V212.78H291.81V218.208ZM284.22 193.828V190.838H278.562V193.828H284.22ZM326.711 201.142H319.949V193.552H315.211V187.94H319.949V179.706H326.711V201.142ZM307.345 205.328H319.949V202.568H326.711V218.438H300.537V202.568H307.345V205.328ZM319.949 213.01V210.526H307.345V213.01H319.949ZM316.269 186.652H309.599C309.875 188.707 310.657 190.562 311.945 192.218C313.263 193.874 315.211 195.101 317.787 195.898L314.429 201.188C310.534 199.931 307.713 197.615 305.965 194.242C304.125 198.106 301.165 200.682 297.087 201.97L293.729 196.496C296.427 195.607 298.451 194.303 299.801 192.586C301.181 190.838 302.009 188.86 302.285 186.652H295.477V181.086H316.269V186.652ZM370.34 186.56H361.048C361.569 187.909 362.704 189.09 364.452 190.102C366.231 191.114 368.837 191.804 372.272 192.172L369.788 197.554C366.139 197.186 363.164 196.358 360.864 195.07C358.595 193.782 356.969 192.157 355.988 190.194C354.976 192.157 353.335 193.782 351.066 195.07C348.797 196.358 345.837 197.186 342.188 197.554L339.75 192.172C343.215 191.804 345.822 191.114 347.57 190.102C349.349 189.059 350.483 187.879 350.974 186.56H341.82V181.178H370.34V186.56ZM373.514 204.132H359.99V209.928H353.366V204.132H338.6V198.704H373.514V204.132ZM369.696 218.208H342.372V206.892H349.134V212.78H369.696V218.208ZM406.621 218.852H399.721V179.706H406.621V218.852ZM382.793 191.574H388.727V182.696H395.443V209.974H376.077V182.696H382.793V191.574ZM388.727 204.454V196.864H382.793V204.454H388.727ZM450.71 185.778C450.71 189.182 450.603 192.264 450.388 195.024C450.204 197.753 449.698 201.05 448.87 204.914L442.292 204.27C442.752 202.123 443.151 199.793 443.488 197.278L422.19 198.566L421.362 192.632L443.948 192.034L444.086 188.078H422.558V182.65H450.71V185.778ZM453.608 214.85H418.786V209.284H430.332V200.36H437.14V209.284H453.608V214.85ZM477.147 188.676H470.017C470.231 190.516 471.013 192.172 472.363 193.644C473.743 195.116 475.828 196.205 478.619 196.91L475.537 202.292C471.581 201.341 468.652 199.333 466.751 196.266C464.88 199.701 461.844 201.955 457.643 203.028L454.469 197.692C457.29 196.956 459.375 195.775 460.725 194.15C462.105 192.525 462.887 190.7 463.071 188.676H456.033V183.386H463.117V179.798H470.017V183.386H477.147V188.676ZM486.669 202.982H479.907V179.752H486.669V202.982ZM473.559 203.58C477.637 203.58 480.857 204.255 483.219 205.604C485.611 206.953 486.807 208.809 486.807 211.17C486.807 213.593 485.626 215.463 483.265 216.782C480.903 218.131 477.668 218.806 473.559 218.806C469.419 218.806 466.153 218.131 463.761 216.782C461.399 215.463 460.219 213.593 460.219 211.17C460.219 208.809 461.399 206.953 463.761 205.604C466.153 204.255 469.419 203.58 473.559 203.58ZM473.559 208.778C471.259 208.778 469.587 208.962 468.545 209.33C467.533 209.698 467.027 210.311 467.027 211.17C467.027 212.059 467.533 212.703 468.545 213.102C469.587 213.47 471.259 213.654 473.559 213.654C475.797 213.654 477.453 213.47 478.527 213.102C479.6 212.703 480.137 212.059 480.137 211.17C480.137 210.342 479.6 209.744 478.527 209.376C477.453 208.977 475.797 208.778 473.559 208.778Z" fill="white"/>
<path opacity="0.4" d="M96.86 96.14V75.98C96.86 66.98 99.32 59.12 104.24 52.4C109.16 45.56 116.72 41.36 126.92 39.8V52.94C121.04 53.66 117.14 55.58 115.22 58.7C113.3 61.82 112.34 65.96 112.34 71.12L101.72 68.96H126.56V96.14H96.86ZM57.8 96.14V75.98C57.8 66.98 60.26 59.12 65.18 52.4C70.1 45.56 77.66 41.36 87.86 39.8V52.94C81.98 53.66 78.08 55.58 76.16 58.7C74.24 61.82 73.28 65.96 73.28 71.12L62.66 68.96H87.5V96.14H57.8Z" fill="white"/>
<path opacity="0.4" d="M576.5 309.06V293C583.833 292.12 588.6 289.773 590.8 285.96C593.147 282.147 594.32 277.087 594.32 270.78L607.3 273.42H576.94V240.2H613.24V264.84C613.24 275.84 610.233 285.447 604.22 293.66C598.353 301.873 589.113 307.007 576.5 309.06ZM528.76 309.06V293C536.093 292.12 540.86 289.773 543.06 285.96C545.407 282.147 546.58 277.087 546.58 270.78L559.56 273.42H529.2V240.2H565.5V264.84C565.5 275.84 562.493 285.447 556.48 293.66C550.613 301.873 541.373 307.007 528.76 309.06Z" fill="white"/>
<defs>
<filter id="filter0_d_216_281" x="924.389" y="184" width="759.611" height="127" filterUnits="userSpaceOnUse" color-interpolation-filters="sRGB">
<feFlood flood-opacity="0" result="BackgroundImageFix"/>
<feColorMatrix in="SourceAlpha" type="matrix" values="0 0 0 0 0 0 0 0 0 0 0 0 0 0 0 0 0 0 127 0" result="hardAlpha"/>
<feOffset dy="4"/>
<feGaussianBlur stdDeviation="2"/>
<feComposite in2="hardAlpha" operator="out"/>
<feColorMatrix type="matrix" values="0 0 0 0 0 0 0 0 0 0 0 0 0 0 0 0 0 0 0.25 0"/>
<feBlend mode="normal" in2="BackgroundImageFix" result="effect1_dropShadow_216_281"/>
<feBlend mode="normal" in="SourceGraphic" in2="effect1_dropShadow_216_281" result="shape"/>
</filter>
<filter id="filter1_d_216_281" x="800.524" y="42" width="759.611" height="127" filterUnits="userSpaceOnUse" color-interpolation-filters="sRGB">
<feFlood flood-opacity="0" result="BackgroundImageFix"/>
<feColorMatrix in="SourceAlpha" type="matrix" values="0 0 0 0 0 0 0 0 0 0 0 0 0 0 0 0 0 0 127 0" result="hardAlpha"/>
<feOffset dy="4"/>
<feGaussianBlur stdDeviation="2"/>
<feComposite in2="hardAlpha" operator="out"/>
<feColorMatrix type="matrix" values="0 0 0 0 0 0 0 0 0 0 0 0 0 0 0 0 0 0 0.25 0"/>
<feBlend mode="normal" in2="BackgroundImageFix" result="effect1_dropShadow_216_281"/>
<feBlend mode="normal" in="SourceGraphic" in2="effect1_dropShadow_216_281" result="shape"/>
</filter>
<linearGradient id="paint0_linear_216_281" x1="1516" y1="172.5" x2="0" y2="172.5" gradientUnits="userSpaceOnUse">
<stop stop-color="#643FBF"/>
<stop offset="1" stop-color="#A181E9"/>
</linearGradient>
</defs>
</svg>
